<svg width="167" height="26" viewBox="0 0 167 26" fill="none" xmlns="http://www.w3.org/2000/svg">
<path d="M0.056 14.236C0.056 12.0173 0.536 10.044 1.496 8.316C2.456 6.56667 3.78933 5.212 5.496 4.252C7.224 3.27067 9.176 2.78 11.352 2.78C14.0187 2.78 16.3013 3.484 18.2 4.892C20.0987 6.3 21.368 8.22 22.008 10.652H15.992C15.544 9.71333 14.904 8.99867 14.072 8.508C13.2613 8.01733 12.3333 7.772 11.288 7.772C9.60267 7.772 8.23733 8.35867 7.192 9.532C6.14667 10.7053 5.624 12.2733 5.624 14.236C5.624 16.1987 6.14667 17.7667 7.192 18.94C8.23733 20.1133 9.60267 20.7 11.288 20.7C12.3333 20.7 13.2613 20.4547 14.072 19.964C14.904 19.4733 15.544 18.7587 15.992 17.82H22.008C21.368 20.252 20.0987 22.172 18.2 23.58C16.3013 24.9667 14.0187 25.66 11.352 25.66C9.176 25.66 7.224 25.18 5.496 24.22C3.78933 23.2387 2.456 21.884 1.496 20.156C0.536 18.428 0.056 16.4547 0.056 14.236ZM39.343 21.532H30.959L29.615 25.5H23.887L32.015 3.036H38.351L46.479 25.5H40.687L39.343 21.532ZM37.935 17.308L35.151 9.084L32.399 17.308H37.935ZM74.3928 3.036V25.5H68.9208V12.028L63.8968 25.5H59.4808L54.4248 11.996V25.5H48.9528V3.036H55.4167L61.7208 18.588L67.9608 3.036H74.3928ZM95.4478 10.268C95.4478 11.5693 95.1491 12.764 94.5518 13.852C93.9544 14.9187 93.0371 15.7827 91.7998 16.444C90.5624 17.1053 89.0264 17.436 87.1918 17.436H83.7998V25.5H78.3278V3.036H87.1918C88.9838 3.036 90.4984 3.34533 91.7358 3.964C92.9731 4.58267 93.9011 5.436 94.5198 6.524C95.1384 7.612 95.4478 8.86 95.4478 10.268ZM86.7758 13.084C87.8211 13.084 88.5998 12.8387 89.1118 12.348C89.6238 11.8573 89.8798 11.164 89.8798 10.268C89.8798 9.372 89.6238 8.67867 89.1118 8.188C88.5998 7.69733 87.8211 7.452 86.7758 7.452H83.7998V13.084H86.7758Z" fill="#F37121"/>
<path d="M106.425 25.756C104.675 25.756 103.097 25.3827 101.689 24.636C100.302 23.8893 99.2032 22.8227 98.3925 21.436C97.6032 20.0493 97.2085 18.428 97.2085 16.572C97.2085 14.7373 97.6138 13.1267 98.4245 11.74C99.2352 10.332 100.345 9.25467 101.753 8.508C103.161 7.76133 104.739 7.388 106.489 7.388C108.238 7.388 109.817 7.76133 111.225 8.508C112.633 9.25467 113.742 10.332 114.553 11.74C115.363 13.1267 115.769 14.7373 115.769 16.572C115.769 18.4067 115.353 20.028 114.521 21.436C113.71 22.8227 112.59 23.8893 111.161 24.636C109.753 25.3827 108.174 25.756 106.425 25.756ZM106.425 21.02C107.47 21.02 108.355 20.636 109.081 19.868C109.827 19.1 110.201 18.0013 110.201 16.572C110.201 15.1427 109.838 14.044 109.113 13.276C108.409 12.508 107.534 12.124 106.489 12.124C105.422 12.124 104.537 12.508 103.833 13.276C103.129 14.0227 102.777 15.1213 102.777 16.572C102.777 18.0013 103.118 19.1 103.801 19.868C104.505 20.636 105.379 21.02 106.425 21.02ZM127.632 12.188H124.688V25.5H119.216V12.188H117.232V7.644H119.216V7.132C119.216 4.93467 119.845 3.27067 121.104 2.14C122.362 0.987999 124.208 0.411999 126.64 0.411999C127.045 0.411999 127.344 0.422665 127.536 0.443998V5.084C126.49 5.02 125.754 5.16933 125.328 5.532C124.901 5.89467 124.688 6.54533 124.688 7.484V7.644H127.632V12.188ZM129.115 16.54C129.115 14.7053 129.456 13.0947 130.139 11.708C130.843 10.3213 131.792 9.25467 132.987 8.508C134.181 7.76133 135.515 7.388 136.987 7.388C138.245 7.388 139.344 7.644 140.283 8.156C141.243 8.668 141.979 9.34 142.491 10.172V7.644H147.963V25.5H142.491V22.972C141.957 23.804 141.211 24.476 140.251 24.988C139.312 25.5 138.213 25.756 136.955 25.756C135.504 25.756 134.181 25.3827 132.987 24.636C131.792 23.868 130.843 22.7907 130.139 21.404C129.456 19.996 129.115 18.3747 129.115 16.54ZM142.491 16.572C142.491 15.2067 142.107 14.1293 141.339 13.34C140.592 12.5507 139.675 12.156 138.587 12.156C137.499 12.156 136.571 12.5507 135.803 13.34C135.056 14.108 134.683 15.1747 134.683 16.54C134.683 17.9053 135.056 18.9933 135.803 19.804C136.571 20.5933 137.499 20.988 138.587 20.988C139.675 20.988 140.592 20.5933 141.339 19.804C142.107 19.0147 142.491 17.9373 142.491 16.572ZM157.394 1.82V25.5H151.922V1.82H157.394ZM166.831 1.82V25.5H161.359V1.82H166.831Z" fill="white"/>
</svg>
