<svg width="30" height="31" viewBox="0 0 30 31" fill="none" xmlns="http://www.w3.org/2000/svg">
<path d="M25.964 30.5002C24.8865 30.5002 23.8708 30.0759 23.11 29.3091C22.3453 28.5423 21.9282 27.5185 21.9282 26.4325C21.9282 25.3465 22.3492 24.3266 23.11 23.5598C23.8747 22.789 24.8865 22.3687 25.964 22.3687C27.0415 22.3687 28.0572 22.789 28.818 23.5598C30.3937 25.1479 30.3937 27.7287 28.818 29.3169C28.0534 30.0798 27.0415 30.5002 25.964 30.5002Z" fill="#F37121"/>
<path d="M4.03579 8.80685C2.9583 8.80685 1.94258 8.38256 1.18177 7.61572C0.420957 6.84889 0 5.82514 0 4.73912C0 3.65309 0.420957 2.63324 1.18177 1.8664C1.94645 1.09568 2.95829 0.671387 4.03965 0.671387C5.11714 0.671387 6.12899 1.09568 6.8898 1.86251C7.65448 2.63324 8.07157 3.65309 8.07157 4.73912C8.07157 5.82514 7.65062 6.84889 6.8898 7.61572C6.12513 8.38645 5.11329 8.80685 4.03579 8.80685Z" fill="#F37121"/>
<path d="M25.7829 8.69015C24.7054 8.69015 23.6897 8.26586 22.9289 7.49902C21.357 5.91086 21.3532 3.33009 22.925 1.74581C23.6897 0.975084 24.7015 0.554688 25.7829 0.554688C26.8604 0.554688 27.8761 0.978976 28.6369 1.74581C30.2087 3.33009 30.2087 5.91475 28.6369 7.50292C27.8722 8.26586 26.8604 8.69015 25.7829 8.69015Z" fill="#F37121"/>
<path d="M4.14023 30.5C3.06274 30.5 2.04703 30.0757 1.28236 29.3089C0.521543 28.542 0.100586 27.5183 0.100586 26.4323C0.100586 25.3462 0.521543 24.3225 1.28236 23.5557C1.4407 23.3922 1.62221 23.2442 1.85007 23.0885C1.91959 23.0418 1.98137 23.0029 2.04702 22.9601C2.19764 22.8745 2.3444 22.7966 2.48343 22.7304C2.56067 22.6954 2.63792 22.6604 2.71902 22.6292C2.86578 22.5747 3.02798 22.528 3.20949 22.4813C3.24811 22.4696 3.279 22.4618 3.31376 22.4541C3.33307 22.4502 3.35624 22.4424 3.37555 22.4346L4.27541 22.3723C4.3874 22.3762 4.51098 22.3918 4.64229 22.4073L4.6925 22.4151C4.72339 22.419 4.76588 22.4229 4.8045 22.4229L4.83925 22.4268L4.88173 22.4346H4.9165C4.98215 22.4385 5.0478 22.4385 5.11345 22.4385C6.66211 22.4385 8.19147 21.7729 9.30759 20.6168C10.4198 19.4646 11.0339 17.9114 10.9876 16.3583V16.3116L10.9798 16.2649C10.9721 16.2221 10.9682 16.1792 10.9644 16.1325C10.9605 16.0819 10.9567 16.0274 10.9489 15.9768L10.9374 15.8873C10.9296 15.8094 10.9219 15.7316 10.9142 15.6537L10.9837 14.7468C10.9876 14.7234 10.9953 14.704 11.003 14.6806L11.0185 14.6261C11.0609 14.4548 11.1034 14.2797 11.1691 14.1162C11.2038 14.0228 11.2347 13.9527 11.2695 13.8787C11.3429 13.7191 11.4162 13.5751 11.5051 13.4272C11.5437 13.361 11.5784 13.2987 11.6248 13.2365C11.787 12.9951 11.9376 12.8122 12.0882 12.6604C12.849 11.8935 13.8647 11.4692 14.9422 11.4692C16.0197 11.4692 17.0354 11.8896 17.7963 12.6604C19.3681 14.2485 19.3681 16.8293 17.7924 18.4136C17.6341 18.5732 17.4525 18.7211 17.2247 18.8807C17.159 18.9274 17.0934 18.9663 17.0316 19.0014C16.8848 19.087 16.7419 19.1648 16.5952 19.2349C16.5179 19.2699 16.4368 19.3089 16.3596 19.3361C16.2051 19.3945 16.0429 19.4451 15.8691 19.484L15.7726 19.5113C15.7494 19.5191 15.7301 19.523 15.7069 19.5307L14.7994 19.5969C14.6912 19.593 14.5831 19.5774 14.4634 19.5619L14.3822 19.5502C14.3552 19.5463 14.3127 19.5424 14.2703 19.5385L14.2394 19.5346L14.193 19.5268H14.1583C14.0926 19.523 14.0269 19.523 13.9613 19.523C12.4126 19.523 10.8833 20.1886 9.76717 21.3447C8.65491 22.4969 8.04085 24.05 8.08333 25.6031V25.6499L8.09106 25.6966C8.09879 25.7394 8.10264 25.7861 8.1065 25.8289C8.11036 25.8795 8.11423 25.934 8.12195 25.9846C8.12195 26.0158 8.12968 26.0702 8.1374 26.1247C8.14513 26.187 8.15284 26.2493 8.15284 26.3116V26.3349L8.0872 27.2069C8.08333 27.2263 8.05243 27.3237 8.04471 27.3587C8.00223 27.5455 7.95203 27.7129 7.89796 27.8608C7.86707 27.9426 7.83617 28.0165 7.80141 28.0905C7.7319 28.2462 7.65465 28.3941 7.56969 28.542C7.53107 28.6043 7.48858 28.6744 7.44224 28.7444C7.29162 28.9624 7.14486 29.1493 6.98266 29.3089C6.23343 30.0757 5.21773 30.5 4.14023 30.5Z" fill="#F37121"/>
<path d="M15.0426 30.5C13.9651 30.5 12.9494 30.0757 12.1847 29.3089C11.4239 28.542 11.0029 27.5183 11.0029 26.4323C11.0029 25.3463 11.42 24.3264 12.1847 23.5596C12.3392 23.4039 12.5168 23.2559 12.7601 23.0886C12.8181 23.0457 12.8837 23.0068 12.9532 22.9679C13.1 22.8784 13.2429 22.8044 13.3935 22.7343C13.4707 22.6993 13.548 22.6643 13.6291 22.6331C13.7797 22.5786 13.9419 22.528 14.1157 22.4891C14.1157 22.4891 14.2586 22.4463 14.274 22.4424L15.1855 22.3762C15.2936 22.3801 15.4095 22.3957 15.5292 22.4113L15.5949 22.419C15.6412 22.4229 15.676 22.4268 15.7146 22.4268C15.73 22.4268 15.7455 22.4268 15.757 22.4307L15.7841 22.4346L15.8227 22.4385C15.8884 22.4385 15.9579 22.4424 16.0235 22.4424C17.5683 22.4424 19.0938 21.7768 20.2099 20.6207C21.3222 19.4685 21.9362 17.9153 21.8899 16.3622V16.1754L21.8745 16.1559C21.8745 16.1481 21.8745 16.1403 21.8745 16.1364C21.8706 16.0936 21.8706 16.0469 21.8667 16.0041L21.8513 15.8717C21.8436 15.8017 21.832 15.7277 21.832 15.6577L21.8938 14.7779C21.8976 14.7546 21.9285 14.6456 21.9362 14.6144C21.9865 14.4042 22.0328 14.2485 22.083 14.1123C22.11 14.0306 22.1487 13.9566 22.1834 13.8749C22.2491 13.7347 22.3225 13.5868 22.4151 13.4311L22.4344 13.4039C22.4653 13.3494 22.4962 13.2988 22.531 13.2443C22.6971 13.0029 22.8438 12.82 22.9983 12.6643C23.763 11.8935 24.7748 11.4731 25.8562 11.4731C26.9337 11.4731 27.9455 11.8974 28.7102 12.6643C30.282 14.2485 30.282 16.8332 28.7102 18.4214C28.5557 18.5732 28.3742 18.7211 28.1386 18.8885C28.0923 18.9196 28.0498 18.9469 28.0073 18.9741L27.9378 19.0169C27.8026 19.0987 27.6559 19.1765 27.513 19.2427C27.4319 19.2777 27.3546 19.3128 27.2774 19.3439C27.1345 19.3984 26.98 19.4412 26.7831 19.4918C26.7444 19.4996 26.7135 19.5113 26.6788 19.5191C26.6556 19.523 26.6363 19.5308 26.6131 19.5385L25.7171 19.6008C25.5858 19.5969 25.4429 19.5775 25.3078 19.558C25.2614 19.5541 25.2228 19.5502 25.1881 19.5502C25.1726 19.5502 25.161 19.5502 25.1456 19.5463L25.0683 19.5385C25.0027 19.5346 24.937 19.5346 24.8675 19.5346C23.3188 19.5346 21.7934 20.2003 20.6772 21.3564C19.565 22.5086 18.9548 24.0617 18.9973 25.6187V25.6654L19.005 25.7083C19.0127 25.755 19.0166 25.8017 19.0204 25.8484C19.0243 25.8951 19.0282 25.9418 19.032 25.9885C19.0359 26.0274 19.0398 26.0742 19.0475 26.1248C19.0552 26.1948 19.0629 26.261 19.0668 26.3311L19.0011 27.2225C18.9973 27.2419 18.9625 27.3626 18.9625 27.3626C18.92 27.5533 18.8698 27.7168 18.8158 27.8725C18.7887 27.9465 18.7578 28.0165 18.7231 28.0905L18.7115 28.1178C18.6458 28.2618 18.5686 28.4058 18.4875 28.5459C18.445 28.616 18.4064 28.6822 18.3639 28.7484C18.2056 28.978 18.0549 29.1649 17.8966 29.3244C17.1319 30.0796 16.1201 30.5 15.0426 30.5Z" fill="white"/>
<path d="M4.1437 19.5152C3.06621 19.5152 2.05049 19.0909 1.28968 18.3241C0.528867 17.5533 0.10791 16.5335 0.10791 15.4474C0.10791 14.3614 0.525005 13.3416 1.28968 12.5747C1.44416 12.419 1.62954 12.2672 1.86126 12.1076C1.92305 12.0648 1.99256 12.022 2.05821 11.9831C2.19725 11.9013 2.34015 11.8235 2.49077 11.7534C2.56801 11.7184 2.64525 11.6833 2.73021 11.6522C2.87697 11.5977 3.04303 11.5471 3.21296 11.5121L3.31723 11.4848C3.33654 11.4809 3.35586 11.4731 3.3713 11.4692L4.2866 11.4031C4.40632 11.407 4.53376 11.4264 4.66893 11.442L4.69597 11.4459C4.74231 11.4498 4.78093 11.4537 4.81569 11.4537C4.82727 11.4537 4.84272 11.4537 4.85431 11.4576L4.89293 11.4654H4.93154C5.00106 11.4654 5.06672 11.4692 5.13237 11.4692C6.67717 11.4692 8.20266 10.8075 9.31878 9.64753C10.431 8.49533 11.0412 6.94219 10.9987 5.38906V5.34624L10.991 5.30342C10.9833 5.25282 10.9794 5.20611 10.9756 5.15551C10.9717 5.11269 10.9717 5.07376 10.9678 5.03095L10.9524 4.90638C10.9447 4.83243 10.9331 4.75457 10.9331 4.68061L10.9949 3.82425L10.9987 3.80479V3.78922C11.0026 3.76975 11.0374 3.65687 11.0374 3.65687C11.0876 3.43888 11.1339 3.27929 11.1841 3.13916C11.2112 3.06131 11.2498 2.98735 11.2845 2.90561C11.3502 2.75769 11.4274 2.60977 11.5163 2.46185L11.5317 2.4385C11.5665 2.38011 11.6012 2.32172 11.6398 2.26333C11.7982 2.02978 11.9488 1.84683 12.0994 1.69112C12.8641 0.920396 13.8759 0.5 14.9573 0.5C16.0348 0.5 17.0505 0.924289 17.8113 1.69112C19.3831 3.27929 19.3831 5.86006 17.8113 7.44433C17.6568 7.60004 17.4715 7.75185 17.2436 7.90755C17.1818 7.95037 17.1277 7.98151 17.0737 8.01654L17.0428 8.036C16.896 8.12553 16.7493 8.20339 16.6102 8.26567C16.5291 8.30459 16.4519 8.33963 16.3746 8.36687C16.224 8.42526 16.0618 8.47197 15.8803 8.51479C15.8417 8.52258 15.8069 8.53425 15.7722 8.54204C15.7529 8.54593 15.7297 8.55372 15.7104 8.5615L14.8144 8.62378C14.7024 8.61989 14.5788 8.60432 14.4514 8.58486L14.3973 8.57707C14.3548 8.57318 14.3162 8.56929 14.2814 8.56929C14.266 8.56929 14.2505 8.56929 14.2351 8.56539L14.2042 8.54593L14.1656 8.54204C14.0999 8.53815 14.0304 8.53815 13.9648 8.53815C12.42 8.53815 10.8945 9.20377 9.77836 10.3599C8.6661 11.5121 8.05204 13.0691 8.09839 14.6222V14.6689L8.10611 14.7118C8.11383 14.7585 8.11769 14.8052 8.12156 14.8519C8.12542 14.8986 8.12928 14.9453 8.13314 14.9959C8.137 15.0348 8.14087 15.0815 8.14859 15.1322C8.15632 15.1983 8.16403 15.2684 8.16403 15.3346L8.09839 16.2221C8.09452 16.2454 8.0868 16.2688 8.07908 16.2921L8.0559 16.37C8.00955 16.5685 7.96322 16.732 7.90915 16.8799C7.88212 16.9578 7.84349 17.0356 7.80487 17.1174C7.73922 17.2653 7.66198 17.4093 7.57701 17.5572C7.53453 17.6273 7.49591 17.6935 7.45343 17.7557C7.28736 17.9971 7.14447 18.1761 6.98999 18.3318C6.22918 19.0948 5.21734 19.5152 4.1437 19.5152Z" fill="white"/>
<path d="M23.9828 21.2824C23.9828 22.3684 23.5619 23.3921 22.8011 24.159C22.0364 24.9258 21.0245 25.3501 19.947 25.3501C18.8695 25.3501 17.8577 24.9297 17.0969 24.159C16.9424 24.0033 16.7918 23.8164 16.6334 23.5829C16.591 23.5206 16.5485 23.4505 16.5099 23.3844C16.4288 23.2442 16.3515 23.1002 16.282 22.9484C16.2472 22.8705 16.2125 22.7927 16.1816 22.707C16.1275 22.5591 16.0773 22.3917 16.0426 22.2205L16.0155 22.1154C16.0117 22.0959 16.0039 22.0764 16.0001 22.0609L15.9344 21.1383C15.9383 21.0177 15.9576 20.8892 15.973 20.753L15.9769 20.7257C15.9808 20.679 15.9846 20.6401 15.9846 20.6051C15.9846 20.5934 15.9846 20.5778 15.9885 20.5661L15.9962 20.5272V20.4883C15.9962 20.4182 16.0001 20.352 16.0001 20.2859C16.0001 18.7288 15.3435 17.1913 14.1927 16.0663C13.0495 14.9453 11.5086 14.3302 9.96763 14.3731H9.92515L9.88267 14.3808C9.83246 14.3886 9.78611 14.3925 9.73591 14.3964C9.69343 14.4003 9.6548 14.4003 9.61232 14.4042L9.48875 14.4198C9.41537 14.4276 9.33812 14.4392 9.26474 14.4392L8.41511 14.377L8.39579 14.3731H8.38035C8.36104 14.3692 8.24904 14.3341 8.24904 14.3341C8.03276 14.2835 7.87443 14.2368 7.7354 14.1862C7.65816 14.159 7.58478 14.12 7.50367 14.085C7.35692 14.0188 7.21017 13.941 7.06341 13.8515L7.02092 13.8398C6.96299 13.8047 6.90507 13.7697 6.84714 13.7308C6.61542 13.5712 6.43391 13.4194 6.27943 13.2676C5.51475 12.4968 5.09766 11.477 5.09766 10.3871C5.09766 9.30105 5.51861 8.27731 6.27943 7.51047C7.85512 5.9262 10.4156 5.9262 11.9875 7.51047C12.1419 7.66617 12.2926 7.85302 12.447 8.08268C12.4895 8.14496 12.5204 8.19946 12.5552 8.25395L12.5745 8.28509C12.6633 8.43301 12.7405 8.58093 12.8023 8.72106C12.841 8.8028 12.8757 8.88065 12.9028 8.95851C12.9607 9.11032 13.007 9.2738 13.0495 9.45675C13.0572 9.49568 13.0688 9.53071 13.0765 9.56574C13.0804 9.58521 13.0881 9.60856 13.0959 9.62803L13.1576 10.5311C13.1538 10.644 13.1383 10.7685 13.119 10.897L13.1113 10.9515C13.1074 10.9943 13.1036 11.0332 13.1036 11.0683C13.1036 11.0838 13.1036 11.0994 13.0997 11.115L13.0959 11.1461L13.092 11.1851C13.0881 11.2512 13.0881 11.3213 13.0881 11.3875C13.0881 12.9445 13.7485 14.4821 14.8955 15.607C16.0387 16.7281 17.5835 17.347 19.1244 17.3003H19.1708L19.2133 17.2925C19.2596 17.2847 19.3059 17.2808 19.3523 17.2769C19.3986 17.273 19.445 17.2691 19.4952 17.2652C19.5338 17.2613 19.5801 17.2575 19.6303 17.2497C19.696 17.2419 19.7655 17.2341 19.8312 17.2341L20.7117 17.3003C20.7349 17.3042 20.7581 17.312 20.7812 17.3197L20.8585 17.3431C21.0554 17.3898 21.2176 17.4365 21.3644 17.491C21.4416 17.5183 21.5189 17.5572 21.6 17.5961C21.7467 17.6623 21.8896 17.7401 22.0364 17.8258C22.1059 17.8686 22.1715 17.9075 22.2333 17.9503C22.4728 18.1177 22.6504 18.2617 22.8049 18.4174C23.5619 19.1765 23.9828 20.1963 23.9828 21.2824Z" fill="url(#paint0_linear_1223_2021)"/>
<defs>
<linearGradient id="paint0_linear_1223_2021" x1="6.10457" y1="7.51294" x2="23.2841" y2="23.4776" gradientUnits="userSpaceOnUse">
<stop stop-color="#FF6100"/>
<stop offset="0.5" stop-color="white"/>
<stop offset="0.985" stop-color="#FF6100"/>
</linearGradient>
</defs>
</svg>
